<?xml version="1.0" encoding="UTF-8" standalone="no"?>
<!-- Created with Inkscape (http://www.inkscape.org/) -->

<svg
   width="210mm"
   height="297mm"
   viewBox="0 0 210 297"
   version="1.1"
   id="svg387"
   inkscape:version="1.2.2 (b0a8486541, 2022-12-01)"
   sodipodi:docname="ender_logo.svg"
   xml:space="preserve"
   xmlns:inkscape="http://www.inkscape.org/namespaces/inkscape"
   xmlns:sodipodi="http://sodipodi.sourceforge.net/DTD/sodipodi-0.dtd"
   xmlns="http://www.w3.org/2000/svg"
   xmlns:svg="http://www.w3.org/2000/svg"><sodipodi:namedview
     id="namedview389"
     pagecolor="#ffffff"
     bordercolor="#666666"
     borderopacity="1.0"
     inkscape:showpageshadow="2"
     inkscape:pageopacity="0.0"
     inkscape:pagecheckerboard="0"
     inkscape:deskcolor="#262626"
     inkscape:document-units="mm"
     showgrid="false"
     shape-rendering="auto"
     showborder="false"
     inkscape:zoom="1.7727974"
     inkscape:cx="288.52705"
     inkscape:cy="378.21581"
     inkscape:window-width="2560"
     inkscape:window-height="1359"
     inkscape:window-x="1920"
     inkscape:window-y="0"
     inkscape:window-maximized="1"
     inkscape:current-layer="layer1" /><defs
     id="defs384" /><g
     inkscape:label="Layer 1"
     inkscape:groupmode="layer"
     id="layer1"><path
       style="fill:#000000;stroke-width:0.0667331"
       d="m 112.61463,109.54206 c -0.0848,-0.0427 -0.19002,-0.18277 -0.23387,-0.31123 -0.0779,-0.22825 -0.0871,-0.23315 -0.40599,-0.21546 -0.17944,0.01 -1.062,0.0965 -1.96122,0.19223 -2.05835,0.21923 -3.97412,0.25102 -4.54097,0.0754 -0.83901,-0.25999 -1.47269,-0.86285 -1.81002,-1.72197 -0.276,-0.70294 -0.23662,-2.62804 0.0816,-3.99063 0.47039,-2.014 1.96668,-4.641765 3.6637,-6.434155 1.50134,-1.58573 3.10134,-2.73036 5.29367,-3.7871 2.41562,-1.16436 3.78929,-1.2866 6.10916,-0.54366 l 0.81973,0.26252 0.2544,-0.54382 c 0.98993,-2.11609 2.086,-4.49082 2.09569,-4.54047 0.006,-0.0327 -0.46286,-0.2027 -1.04275,-0.37784 -1.4033,-0.42383 -1.29918,-0.37556 -1.14339,-0.53008 0.22992,-0.22804 1.23037,-0.79149 1.78786,-1.00691 0.79203,-0.30606 1.5866,-0.4903 2.9791,-0.69078 0.67901,-0.0978 1.57643,-0.23729 1.99427,-0.31007 0.41784,-0.0728 0.77149,-0.12055 0.78589,-0.10615 0.0221,0.0221 -0.28426,0.69719 -1.61033,3.54837 -0.18467,0.39706 -1.29214,2.7878 -2.07116,4.47112 -0.30575,0.66065 -1.14788,2.47746 -1.87141,4.03735 -0.72352,1.55988 -1.86985,4.037345 -2.54739,5.505475 -0.67754,1.46813 -1.30423,2.81443 -1.39264,2.99179 -0.0884,0.17736 -0.16074,0.33176 -0.16074,0.34311 0,0.0114 0.38288,0.17469 0.85085,0.36296 1.09658,0.44116 1.0781,0.42905 0.92041,0.60329 -0.70479,0.77879 -4.80617,2.53467 -6.44967,2.76125 -0.13237,0.0182 -0.31003,-0.002 -0.39481,-0.0445 z m -1.09959,-2.81155 c 1.11692,-0.44996 2.31001,-1.50248 2.95272,-2.60483 0.5395,-0.92534 1.20682,-2.29908 2.05841,-4.237475 0.42731,-0.97264 0.9298,-2.11378 1.11663,-2.53586 0.30897,-0.69799 0.33996,-0.81318 0.34253,-1.27303 0.003,-0.45371 -0.0164,-0.53086 -0.18483,-0.75172 -0.36023,-0.47247 -1.25213,-0.77572 -2.28147,-0.77572 -1.11092,0 -1.89238,0.30676 -3.08601,1.21142 -1.94364,1.4731 -3.3687,3.75995 -4.19018,6.724115 -0.23688,0.85478 -0.24701,0.93264 -0.21269,1.63496 0.0533,1.09111 0.33299,1.80249 0.91398,2.32485 0.46582,0.41882 0.76415,0.51638 1.50318,0.49161 0.47176,-0.0158 0.70081,-0.0605 1.06773,-0.20832 z m 13.82562,2.79873 c -2.08126,-0.39332 -3.22744,-1.89282 -3.08136,-4.03122 0.0849,-1.24216 0.68673,-3.12728 1.57015,-4.91782 1.24842,-2.530315 2.85637,-4.410385 4.99664,-5.842215 1.70402,-1.13998 4.32041,-2.15392 5.91479,-2.29216 1.05933,-0.0919 2.94197,0.23644 3.71323,0.64752 1.02824,0.54804 1.44255,1.71173 1.26424,3.55081 -0.1704,1.75735 -0.54342,2.4849 -1.46508,2.85743 l -0.37865,0.15305 -4.80479,0.004 -4.80478,0.005 -0.35356,0.1818 c -0.25104,0.12908 -0.41137,0.272915 -0.55289,0.496015 -0.26663,0.42034 -0.35009,0.72679 -0.56778,2.08452 -0.20933,1.30555 -0.18475,1.83289 0.11366,2.43922 0.47983,0.97498 1.71366,1.48833 3.39203,1.41131 1.58792,-0.0729 2.72773,-0.59789 5.04225,-2.32251 0.29363,-0.21879 0.90391,-0.62132 1.35617,-0.8945 l 0.82231,-0.49669 0.16427,0.37145 c 0.0904,0.20429 0.14655,0.42727 0.1249,0.4955 -0.0664,0.20909 -2.35791,2.47393 -3.10161,3.06546 -2.04919,1.6299 -4.03923,2.56845 -6.30628,2.97421 -0.85452,0.15293 -2.4048,0.1833 -3.05786,0.0599 z m 9.43087,-12.065205 c 0.42983,-0.20763 0.61553,-0.56894 0.61725,-1.20095 0.003,-0.95257 -0.30699,-1.46294 -1.01492,-1.67317 -0.44659,-0.13263 -0.76271,-0.13457 -1.4788,-0.009 -1.4976,0.26241 -2.72909,1.1485 -3.68835,2.65389 l -0.24397,0.38286 2.35385,0.0206 c 2.83045,0.0248 3.06792,0.0128 3.45494,-0.17414 z M 84.087741,109.35844 c -0.959906,-0.0986 -2.163378,-0.37325 -2.3298,-0.53173 -0.05861,-0.0558 0.212578,-0.51259 0.393419,-0.66268 0.0456,-0.0378 0.258009,-0.10118 0.472018,-0.14074 0.586831,-0.10848 1.050741,-0.30383 1.490756,-0.62775 0.432942,-0.31871 1.100007,-1.13897 1.044305,-1.28413 -0.01914,-0.0499 -0.0063,-0.0731 0.0286,-0.0515 0.08066,0.0499 0.154463,-0.0972 1.195172,-2.38084 0.473458,-1.03893 1.510753,-3.29686 2.3051,-5.017615 0.794347,-1.72075 1.435749,-3.13458 1.425337,-3.14185 -0.01041,-0.007 -0.421358,-0.10086 -0.913213,-0.208 -0.856857,-0.18666 -0.897774,-0.20319 -0.977734,-0.39501 -0.186804,-0.44813 -0.163686,-0.51056 0.237054,-0.64012 0.591181,-0.19113 6.603484,-2.06257 6.626349,-2.06257 0.01769,0 -0.05318,0.67536 -0.177232,1.68904 l -0.03112,0.25427 0.211072,-0.0456 c 0.11609,-0.0251 0.841701,-0.32385 1.612468,-0.66396 2.117945,-0.93458 2.891475,-1.14352 4.015808,-1.08471 0.55024,0.0288 0.68588,0.0623 1.12096,0.27737 0.77973,0.38537 1.1661,0.93107 1.30835,1.84791 0.16667,1.07423 -0.10723,1.97008 -1.61021,5.2665 -1.49208,3.272515 -1.777633,3.887205 -2.433033,5.237525 -0.32039,0.6601 -0.623689,1.33577 -0.673998,1.50149 -0.279548,0.92087 0.08697,1.43988 1.338098,1.89486 0.11778,0.0428 0.11178,0.0565 -0.065,0.1482 -0.41285,0.21419 -1.563683,0.5527 -2.236371,0.6578 -0.7663,0.11974 -1.787213,0.14526 -4.784849,0.11964 l -1.951519,-0.0167 0.535703,-0.66663 c 0.320278,-0.39855 0.595174,-0.67803 0.68359,-0.69499 0.723654,-0.13879 0.95443,-0.20437 1.230679,-0.3497 0.369609,-0.19446 0.813211,-0.60288 1.095819,-1.0089 0.169511,-0.24354 1.057944,-1.95687 1.057944,-2.04023 0,-0.0159 0.255254,-0.56052 0.567232,-1.21022 0.311977,-0.64971 0.567231,-1.19043 0.567231,-1.20161 0,-0.0112 0.208097,-0.45579 0.462438,-0.98801 0.557297,-1.166185 1.438898,-3.144635 1.627098,-3.651465 0.193845,-0.52205 0.198635,-1.41192 0.0093,-1.73417 -0.205663,-0.35009 -0.631878,-0.48807 -1.398177,-0.45264 -0.507263,0.0234 -0.707166,0.0701 -1.286343,0.29988 -1.790156,0.71036 -2.679935,1.58717 -3.379219,3.32996 -0.424344,1.05757 -0.719358,1.710895 -1.777338,3.936085 -1.587563,3.33903 -1.798639,3.82285 -1.798639,4.12273 0,0.27191 0.345614,0.59483 0.930306,0.86921 0.295803,0.13881 0.537822,0.27733 0.537822,0.30782 0,0.0305 -0.112612,0.14835 -0.250249,0.26193 -0.879998,0.72612 -3.75367,1.16829 -6.056029,0.93183 z m 54.339679,-0.0987 c -0.81374,-0.10205 -2.09772,-0.40193 -2.54958,-0.59546 l -0.26172,-0.1121 0.55983,-0.30647 c 0.48174,-0.26373 0.64887,-0.31801 1.19814,-0.38914 1.06125,-0.13743 1.7222,-0.51469 2.31826,-1.32324 0.37988,-0.51531 0.61672,-0.98865 1.78812,-3.57369 0.52433,-1.15707 1.27363,-2.79445 1.66512,-3.638615 0.39149,-0.84418 0.80231,-1.73006 0.91292,-1.96863 0.53818,-1.16067 0.67387,-1.4723 0.64943,-1.49144 -0.0146,-0.0114 -0.55207,-0.11791 -1.19437,-0.23661 -0.64231,-0.11871 -1.22789,-0.23954 -1.3013,-0.2685 -0.1142,-0.0451 -0.0564,-0.10306 0.4004,-0.40184 1.06972,-0.69964 2.00323,-1.07616 4.31634,-1.74097 1.14188,-0.32818 2.30877,-0.73695 2.97425,-1.04188 0.10585,-0.0485 0.10485,0.018 -0.0156,1.03985 -0.0538,0.45663 -0.0847,0.84344 -0.0685,0.85958 0.0373,0.0373 0.53363,-0.15861 1.83592,-0.72452 1.20217,-0.52241 2.08528,-0.8293 2.68881,-0.9344 1.22101,-0.21263 1.81852,0.63674 1.37635,1.95653 -0.4159,1.24139 -1.2814,2.00335 -2.38022,2.09547 -0.57094,0.0479 -1.02599,-0.0479 -1.71442,-0.36071 -0.45138,-0.2051 -0.6136,-0.24497 -1.01,-0.2482 -0.42341,-0.004 -0.49933,0.0166 -0.73406,0.19424 -0.4575,0.34615 -1.56537,1.45451 -1.89915,1.89999 -0.32753,0.43713 -1.35412,2.389825 -2.01941,3.841155 -0.2019,0.44044 -0.47524,1.03572 -0.60741,1.32285 -0.13218,0.28713 -0.24033,0.5318 -0.24033,0.5437 0,0.0119 -0.16072,0.36256 -0.35716,0.77924 -0.87858,1.86365 -1.03372,2.48089 -0.71057,2.82731 0.22056,0.23643 0.51261,0.38043 1.21628,0.59972 0.53568,0.16693 0.57673,0.19192 0.51244,0.31204 -0.19614,0.36649 -1.19507,0.76202 -2.52816,1.00103 -1.02517,0.18379 -3.65792,0.22952 -4.82057,0.0837 z m -79.714666,-0.15747 c -0.30265,-0.10027 -0.56736,-0.19939 -0.588246,-0.22028 -0.02089,-0.0209 0.316825,-0.22578 0.75047,-0.45531 0.433645,-0.22954 1.10376,-0.60386 1.489143,-0.83183 0.385384,-0.22798 0.949741,-0.56024 1.254127,-0.73836 0.978953,-0.57287 1.203404,-0.8235 1.805863,-2.01641 0.813491,-1.61077 2.367724,-4.861435 3.659858,-7.654565 0.237711,-0.51385 0.522826,-1.12946 0.633591,-1.36803 0.497314,-1.07114 1.052751,-2.27649 2.11322,-4.58588 0.996595,-2.17028 1.157979,-2.5693 1.278628,-3.16133 0.07594,-0.37265 0.129248,-0.68356 0.118459,-0.6909 -0.01079,-0.007 -0.612653,-0.22138 -1.337475,-0.47563 -0.724823,-0.25424 -1.317229,-0.47728 -1.316457,-0.49563 7.74e-4,-0.0183 0.383599,-0.24358 0.850728,-0.5005 l 0.849325,-0.46713 9.4642,-0.0176 c 9.014222,-0.0168 9.462584,-0.012 9.430183,0.1001 -0.01871,0.0647 -0.111184,0.44387 -0.205496,0.84254 -0.653602,2.76285 -1.789393,4.42243 -3.176747,4.64174 l -0.321833,0.0509 -0.02095,-1.10714 c -0.01867,-0.98703 -0.03713,-1.13972 -0.170105,-1.40744 -0.08204,-0.16517 -0.249101,-0.36789 -0.37125,-0.45051 -0.765984,-0.51807 -4.657007,-0.88822 -6.20805,-0.59057 -0.786251,0.15088 -1.617717,0.45894 -2.12904,0.7888 -0.605551,0.39065 -1.429655,1.25629 -1.796692,1.88724 -0.405343,0.6968 -0.604855,1.19854 -0.928763,2.33566 -0.18785,0.65947 -0.412754,1.2356 -0.764647,1.95879 -0.274187,0.56349 -0.498522,1.03168 -0.498522,1.04041 0,0.0626 4.455506,0.094 5.171816,0.0364 1.436757,-0.11536 1.887532,-0.28387 2.79909,-1.04639 0.939963,-0.78627 1.22241,-1.00686 1.713963,-1.33855 0.511651,-0.34526 1.115541,-0.6309 1.5137,-0.71598 l 0.220974,-0.0472 -0.207014,0.41009 c -0.293,0.58043 -0.721607,1.64444 -1.224204,3.03906 -0.984291,2.73125 -1.560674,3.80689 -2.639958,4.926665 -0.206116,0.21386 -0.456166,0.4478 -0.555666,0.51987 -0.180313,0.13062 -0.181818,0.13059 -0.458331,-0.0105 l -0.277425,-0.14153 0.04313,-0.34497 c 0.02372,-0.18973 0.09079,-0.5647 0.149046,-0.833265 0.217937,-1.00471 0.01625,-1.60753 -0.6363,-1.9018 -0.285105,-0.12858 -0.487636,-0.14275 -2.776662,-0.1943 -2.703491,-0.0609 -3.603063,-0.0163 -3.893562,0.19297 -0.260549,0.18769 -0.638836,0.96111 -3.536062,7.229575 -0.438099,0.94788 -0.637424,1.449 -0.587374,1.47671 0.162479,0.09 2.825697,0.22426 4.346677,0.21919 1.743733,-0.006 2.786984,-0.11061 3.903887,-0.39215 2.103844,-0.53032 3.799317,-1.53601 5.175944,-3.07019 0.502606,-0.56013 0.713646,-0.69342 1.540299,-0.97285 l 0.54343,-0.18369 0.198137,0.27352 0.198138,0.27352 -0.436437,0.60406 c -1.459208,2.01963 -3.689118,4.97794 -3.982955,5.28398 -0.504084,0.52503 0.182154,0.49271 -10.305694,0.48539 l -9.31384,-0.007 z M 113.21673,81.696335 c -1.81492,-0.24209 -3.57087,-0.84949 -5.15182,-1.78206 -1.00849,-0.59489 -2.04426,-1.38067 -1.81992,-1.38067 0.0573,0 1.05635,0.31665 2.22002,0.70367 3.12485,1.03927 4.32893,1.29704 5.65255,1.21008 0.5975,-0.0392 1.30137,-0.15974 1.30137,-0.22277 0,-0.0182 -0.37013,-0.51868 -0.8225,-1.11225 -0.45238,-0.59357 -1.20774,-1.58973 -1.67859,-2.21369 -0.47085,-0.62395 -0.88901,-1.17691 -0.92924,-1.2288 -0.10734,-0.13841 0.0336,-0.0574 1.82873,1.05071 1.87591,1.15801 2.86652,1.73811 3.79266,2.22097 l 0.68957,0.35951 0.71183,-0.004 c 0.78902,-0.005 1.33969,-0.12178 1.97975,-0.42118 0.54509,-0.25497 0.79485,-0.48197 1.00666,-0.9149 0.15276,-0.31223 0.17358,-0.42215 0.14055,-0.74216 -0.0748,-0.72525 -0.52559,-1.39983 -1.97619,-2.95759 -0.97517,-1.04721 -2.18608,-2.07226 -3.44194,-2.91363 -1.32776,-0.88955 -2.4496,-1.44782 -4.33765,-2.15859 -3.51409,-1.32291 -7.10257,-2.83499 -9.62433,-4.0554 -0.46609,-0.22556 -0.52634,-0.27272 -0.4004,-0.31342 0.0815,-0.0263 1.06415,-0.0709 2.1836,-0.099 2.56505,-0.0643 3.21297,-0.18697 4.22359,-0.79948 0.50211,-0.30431 1.03981,-0.8013 0.91983,-0.85019 -0.0523,-0.0213 -0.53492,-0.25639 -1.07246,-0.52238 -1.62319,-0.80321 -2.10778,-0.93508 -4.13769,-1.12597 -4.23228,-0.39798 -8.235635,0.0244 -13.237586,1.39676 -3.148071,0.8637 -5.607066,1.18275 -9.11801,1.18306 -1.905389,1.3e-4 -3.310236,-0.0658 -4.83815,-0.22712 -0.692744,-0.0731 -0.746272,-0.0897 -0.950947,-0.29408 -0.265384,-0.26499 -0.274109,-0.36338 -0.03223,-0.36338 0.386493,0 2.361799,-0.1379 3.385566,-0.23636 5.2222,-0.50221 9.291368,-1.66874 12.839414,-3.68074 1.294077,-0.73384 2.549153,-1.5944 3.670517,-2.51673 l 0.493985,-0.40631 -0.360519,-0.0399 c -0.198286,-0.022 -1.621775,-0.0336 -3.16331,-0.0259 -2.972193,0.0149 -2.963663,0.0143 -7.674307,0.49923 -1.064393,0.10957 -2.535858,0.24696 -3.269922,0.30532 -1.69335,0.13462 -4.512477,0.15513 -5.388014,0.0392 -2.817049,-0.37297 -5.377034,-1.41452 -7.458109,-3.03439 -0.796585,-0.62005 -1.280046,-1.07669 -1.567568,-1.48062 -0.292772,-0.4113 -0.634625,-1.04079 -0.634625,-1.16861 0,-0.0396 0.232732,0.10493 0.517182,0.3211 3.11816,2.36977 7.052355,3.38194 11.995276,3.08609 2.386951,-0.14287 2.36908,-0.13011 0.599325,-0.4279 -2.052587,-0.34539 -3.455099,-0.62508 -3.773733,-0.75257 -0.208543,-0.0834 -0.796212,-0.65006 -0.796212,-0.76768 0,-0.0136 1.539032,0.0441 3.420072,0.12827 l 3.420071,0.15299 0.600598,0.2605 c 0.808984,0.35088 1.455811,0.52089 2.304824,0.60576 1.202452,0.12021 2.10232,0.006 5.48081,-0.69545 1.566815,-0.32532 2.546971,-0.44128 3.692461,-0.43684 0.515257,0.002 1.006963,-0.0481 1.649601,-0.16809 0.503546,-0.094 0.931472,-0.17093 0.950947,-0.17093 0.01947,0 0.03541,-0.11434 0.03541,-0.25408 v -0.25408 l -1.851843,-0.11472 c -3.608479,-0.22353 -4.213849,-0.19119 -10.593881,0.56593 -1.113141,0.1321 -3.809611,0.11883 -4.43918,-0.0218 -1.365432,-0.30509 -2.669,-0.86219 -3.735626,-1.59647 -0.579945,-0.39924 -1.386786,-1.0608 -1.293755,-1.0608 0.02844,0 0.353694,0.11789 0.722784,0.26197 2.511672,0.98048 5.257505,1.18417 8.111813,0.60175 0.532196,-0.10859 1.096669,-0.23626 1.254384,-0.2837 l 0.286755,-0.0863 -1.250784,-0.24884 c -0.687931,-0.13686 -1.258986,-0.25705 -1.269011,-0.26707 -0.01002,-0.01 5.2e-5,-0.13087 0.02239,-0.26854 0.02632,-0.16221 0.07005,-0.23902 0.12423,-0.21823 0.117042,0.0449 2.807565,0.6148 3.534723,0.7487 0.798058,0.14696 2.225567,0.13488 7.140443,-0.0604 2.972027,-0.11809 4.071682,-0.13901 4.737088,-0.0901 1.01922,0.0749 1.822303,-0.004 2.094463,-0.20504 0.39678,-0.29353 0.4124,-0.44839 0.31213,-3.09606 -0.0557,-1.47131 0.0413,-4.09684 0.15953,-4.31614 0.0451,-0.0837 0.67425,1.16407 1.17308,2.32675 0.6557,1.52832 1.47446,2.96315 2.15977,3.78488 0.77845,0.93341 2.09535,1.77383 3.15125,2.01108 l 0.24666,0.0554 0.1708,-0.60869 c 0.0939,-0.33478 0.62542,-2.2303 1.18108,-4.21228 0.55565,-1.98197 1.01829,-3.61206 1.02809,-3.62241 0.01,-0.0104 0.15699,0.0184 0.32709,0.0639 0.20255,0.0542 0.30928,0.11912 0.30928,0.1882 0,0.058 -0.0926,0.59984 -0.20566,1.20404 -0.26021,1.39003 -0.32588,2.71231 -0.17436,3.51082 0.337,1.77598 1.40275,3.09056 3.40911,4.20507 1.54441,0.8579 2.31889,1.62505 3.09825,3.06892 0.78096,1.44684 1.39494,2.27919 2.43838,3.30566 1.64264,1.6159 4.02109,2.95556 6.91636,3.8956 1.22136,0.39656 2.68414,0.19536 4.22388,-0.58097 0.9063,-0.45695 1.76876,-1.1785 2.03955,-1.70632 l 0.12425,-0.24219 0.45919,0.61305 c 0.53736,0.71741 0.49565,0.75836 0.62721,-0.61581 0.079,-0.82483 0.0991,-0.91278 0.18329,-0.8008 0.1933,0.25715 0.54158,1.01197 0.739,1.60168 0.60913,1.81947 0.62608,3.54712 0.067,6.8324 -0.53955,3.17065 -0.67753,4.37329 -0.63927,5.57221 l 0.017,0.53387 -1.85185,0.008 c -1.01851,0.005 -1.85185,-10e-4 -1.85185,-0.0132 0,-0.0118 0.14636,-0.21485 0.32526,-0.4512 0.45572,-0.60211 0.57685,-0.9517 0.57027,-1.64608 -0.009,-0.95037 -0.3077,-1.53367 -1.32821,-2.59351 -1.27954,-1.32888 -2.45983,-2.10147 -3.80486,-2.49059 -0.44784,-0.12956 -0.68442,-0.15401 -1.46813,-0.15173 -1.09733,0.003 -1.25775,0.0603 -1.8106,0.64488 -0.58829,0.62203 -0.59179,0.6346 -0.59179,2.12183 0,1.01959 0.0273,1.43131 0.1261,1.90189 0.25612,1.21992 0.8583,2.65319 1.5399,3.66525 0.80717,1.19851 1.03163,1.36697 2.03767,1.52921 0.34868,0.0562 0.85002,0.13663 1.11408,0.17867 0.54554,0.0868 0.53525,0.0462 0.18597,0.73542 -0.096,0.18946 -0.16482,0.35421 -0.15291,0.36612 0.0119,0.0119 0.28845,0.0682 0.61451,0.12513 0.32607,0.0569 0.60601,0.11663 0.62209,0.13271 0.0569,0.0568 -0.89427,0.79281 -1.8165,1.40559 -2.92227,1.94168 -6.24364,3.20078 -9.50748,3.60417 -1.03157,0.1275 -3.16788,0.12526 -4.13945,-0.004 z m 4.65409,-22.26385 c -0.37982,-0.33775 -1.5737,-1.23884 -2.53283,-1.91167 -0.7733,-0.54247 -0.78344,-0.54714 -0.95095,-0.43739 -0.0931,0.061 -0.16931,0.1404 -0.16931,0.1764 0,0.036 0.31925,0.58059 0.70944,1.2102 0.39019,0.62961 0.84737,1.374 1.01594,1.65419 l 0.3065,0.50944 0.95213,-0.47473 0.95214,-0.47473 z"
       id="path1366"
       inkscape:export-filename="../icons/ender_logo.png"
       inkscape:export-xdpi="128"
       inkscape:export-ydpi="128" /></g></svg>
